<?xml version="1.0" encoding="UTF-8"?>
<svg width="1280px" height="1280px" viewBox="0 0 1280 1280" version="1.1" xmlns="http://www.w3.org/2000/svg" xmlns:xlink="http://www.w3.org/1999/xlink">
    <!-- Generator: Sketch 44.1 (41455) - http://www.bohemiancoding.com/sketch -->
    <title>Group 4</title>
    <desc>Created with Sketch.</desc>
    <defs></defs>
    <g id="Page-1" stroke="none" stroke-width="1" fill="none" fill-rule="evenodd">
        <g id="Group-4">
            <rect id="Rectangle" fill="#0077CC" x="0" y="0" width="1280" height="1280"></rect>
            <path d="M1040,968 C1079.764,968 1112,1000.236 1112,1040 C1112,1079.764 1079.764,1112 1040,1112 C1000.236,1112 968,1079.764 968,1040 C968,1000.236 1000.236,968 1040,968" id="Fill-24" fill="#FF7755"></path>
            <polygon id="Fill-32" fill="#FFFFFF" points="816 1136 944 1136 944 1264"></polygon>
            <polygon id="Fill-40" fill="#FF7755" points="1132.6778 675.3008 1155.3038 652.6748 1267.3098 764.6768 1244.6818 787.3048"></polygon>
            <polygon id="Fill-44" fill="#DDCCAA" points="652.6846 1084.6738 764.6886 972.6698 787.3166 995.2978 675.3126 1107.2998"></polygon>
            <path d="M16,1104 L48,1104 C48,1050.8 90.8,1008 144,1008 L144,976 C73.2,976 16,1033.2 16,1104" id="Fill-8" fill="#FF7755"></path>
            <polygon id="Fill-31" fill="#DDCCAA" points="16 1136 144 1136 144 1264"></polygon>
            <polygon id="Fill-38" fill="#DDCCAA" points="144 656 144 784 16 784"></polygon>
            <polygon id="Fill-41" fill="#334477" points="12.6758 515.3028 35.3018 492.6748 147.3058 604.6788 124.6798 627.3068"></polygon>
        </g>
    </g>
</svg>