<?xml version="1.0" encoding="utf-8"?>
<!-- Generator: Adobe Illustrator 16.0.4, SVG Export Plug-In . SVG Version: 6.00 Build 0)  -->
<!DOCTYPE svg PUBLIC "-//W3C//DTD SVG 1.1//EN" "http://www.w3.org/Graphics/SVG/1.1/DTD/svg11.dtd">
<svg version="1.1" id="Layer_1" xmlns="http://www.w3.org/2000/svg" xmlns:xlink="http://www.w3.org/1999/xlink" x="0px" y="0px"
	 width="120px" height="30px" viewBox="0 0 120 30" enable-background="new 0 0 120 30" xml:space="preserve">
<path fill="#0077cc" d="M23.859,14.261c-0.004-0.209-0.175-0.375-0.383-0.375h-0.008c-1.819,0.038-6.066,0.24-11.685,1.21
	c2.72-2.429,5.867-4.501,9.318-6.066c6.373-2.889,13.29-3.907,19.476-2.865c0.209,0.036,0.406-0.105,0.441-0.314
	c0.036-0.209-0.105-0.407-0.314-0.442C34.37,4.342,27.295,5.38,20.784,8.331c-3.904,1.77-7.43,4.177-10.4,7.017
	c-1.139,0.215-2.322,0.457-3.552,0.738c-0.206,0.048-0.335,0.253-0.287,0.459c0.041,0.178,0.198,0.299,0.373,0.299
	c0.028,0,0.058-0.004,0.086-0.01c0.821-0.188,1.618-0.356,2.399-0.514c-1.662,1.721-3.135,3.575-4.346,5.55
	c-0.111,0.18-0.054,0.416,0.126,0.527c0.062,0.037,0.132,0.055,0.2,0.055c0.129,0,0.255-0.064,0.327-0.184
	c1.37-2.232,3.075-4.313,5.028-6.207c6.15-1.144,10.821-1.37,12.746-1.409C23.695,14.647,23.863,14.472,23.859,14.261z
	 M31.215,15.433c-0.148-0.011-0.152-0.012-0.895,0.479c-1.268,0.813-3.008,1.927-7.894,4.121c-0.871,0.393-1.274,0.482-1.448,0.498
	c0.15-0.469,1.066-1.619,1.634-2.336c1.277-1.605,1.672-2.163,1.457-2.61c-0.042-0.088-0.178-0.292-0.511-0.292
	c-0.773,0-1.96,0.899-3.993,2.491c-1.889,1.479-4.029,3.152-5.61,3.611c-0.203,0.06-0.32,0.271-0.262,0.475
	c0.049,0.167,0.202,0.276,0.368,0.276c0.035,0,0.072-0.003,0.107-0.015c1.724-0.499,3.926-2.222,5.87-3.744
	c1.148-0.899,2.424-1.897,3.143-2.221c-0.269,0.422-0.789,1.076-1.168,1.553c-1.382,1.739-2.142,2.751-1.693,3.327
	c0.321,0.413,1,0.325,2.421-0.314c1.582-0.709,2.845-1.313,3.872-1.83c-0.234,0.274-0.398,0.521-0.492,0.742
	c-0.253,0.601,0.008,0.953,0.187,1.107c0.646,0.565,1.658,0.64,3.004,0.221c0.942-0.292,1.707-0.725,1.739-0.743
	c0.185-0.104,0.249-0.338,0.145-0.521c-0.104-0.185-0.339-0.249-0.522-0.145c-0.771,0.437-2.965,1.397-3.861,0.613
	c-0.022-0.02-0.033-0.031-0.028-0.085c0.075-0.739,2.245-2.389,3.633-3.331c0.113-0.072,0.22-0.141,0.324-0.208
	c0.169-0.109,0.33-0.211,0.486-0.309c0.048-0.03,0.095-0.06,0.139-0.091c0.141-0.102,0.242-0.221,0.19-0.428
	C31.518,15.563,31.379,15.446,31.215,15.433z M55.374,19.513c-3.013,0-5.482,0.151-10.612,0.979
	c-1.841,0.298-3.018,0.152-3.312-0.406c-0.389-0.739,0.588-2.537,2.433-4.471l0.489-0.513c0.722-0.755,1.243-1.301,1.587-1.68
	c0.458-0.504,0.733-0.809,0.472-1.118c-0.258-0.306-0.601-0.089-1.077,0.212c-0.36,0.228-0.891,0.586-1.564,1.04l-0.526,0.354
	c-1.125,0.757-2.692,1.812-4.288,2.849c-0.001-0.116-0.036-0.23-0.122-0.331c-0.282-0.332-0.778-0.318-2.581,0.699
	c-4.703,2.652-4.559,3.203-4.472,3.533c0.051,0.195,0.226,0.431,0.764,0.431c1.296,0,6.207-3.232,11.126-6.545l0.422-0.285
	c-0.097,0.102-0.196,0.206-0.297,0.312l-0.49,0.512c-1.042,1.093-3.375,3.801-2.556,5.356c0.34,0.647,1.116,0.967,2.354,0.967
	c0.508,0,1.093-0.052,1.758-0.161c5.079-0.819,7.517-0.968,10.49-0.968c0.211,0,0.383-0.173,0.383-0.384
	C55.757,19.684,55.585,19.513,55.374,19.513z M37.963,17.41c-2.208,1.411-4.301,2.653-5.166,2.877
	c0.456-0.411,1.572-1.206,3.854-2.492c0.652-0.368,1.072-0.565,1.337-0.67C37.941,17.215,37.934,17.319,37.963,17.41z
	 M114.57,17.861l-1.978,0.243c-6.916,0.85-9.778,1.2-10.553,0.632c-0.242-0.179-0.186-0.632-0.078-1.251
	c0.126-0.726,0.316-1.821-0.828-2.028c-0.837-0.15-1.977,0.326-3.077,0.789c-0.785,0.327-1.664,0.696-2.191,0.696h-0.008
	c0.247-0.749,2.038-2.89,3.44-4.463c0.167-0.177,0.322-0.342,0.473-0.501c3.138,0.005,6.336,0.074,9.095,0.229
	c0.217,0.012,0.394-0.15,0.405-0.361c0.012-0.211-0.15-0.393-0.362-0.404c-2.562-0.144-5.5-0.214-8.42-0.229
	c0.193-0.206,0.35-0.374,0.418-0.451c0.199-0.223,0.109-0.419,0.062-0.494c-0.094-0.145-0.274-0.209-0.438-0.157
	c-0.031,0.01-0.097,0.062-0.187,0.146l-0.008-0.006c-0.021,0.025-0.053,0.057-0.089,0.098c-0.209,0.203-0.505,0.518-0.82,0.862
	c-1.102,0-2.191,0.007-3.252,0.022c0.256-0.322,0.438-0.584,0.188-0.835c-0.265-0.264-0.558-0.03-0.792,0.158
	c-0.171,0.136-0.416,0.344-0.731,0.607c-0.034,0.029-0.077,0.065-0.113,0.095c-2.91,0.061-5.492,0.175-7.243,0.326
	c-0.21,0.018-0.366,0.204-0.348,0.416c0.018,0.199,0.185,0.35,0.382,0.35c0.012,0,0.022,0,0.033-0.001
	c1.542-0.133,3.737-0.237,6.231-0.301c-0.338,0.279-0.708,0.582-1.117,0.91c-2.267,1.813-5.693,4.552-6.527,4.007
	c-0.121-0.321,0.76-1.582,1.439-2.393c0.017-0.017,0.031-0.033,0.049-0.051c0.576-0.615,0.638-0.681,0.513-0.929
	c-0.071-0.144-0.226-0.227-0.387-0.209c-0.089,0.01-0.194,0.022-0.707,0.637c-1.747,1.842-4.307,2.935-4.755,2.742
	c-0.071-0.376,0.985-1.58,1.776-2.356c0.209-0.157,0.39-0.307,0.533-0.439c0.236-0.221,0.505-0.471,0.248-0.76
	c-0.257-0.286-0.55-0.035-0.676,0.071c-0.124,0.107-0.32,0.282-0.55,0.502c-1.217,0.923-3.582,2.271-5.058,2.977
	c0.002-0.068,0.005-0.136-0.014-0.2c-0.22-0.765-1.485-0.98-4.103-0.702c-2.5,0.267-5.532,0.914-7.636,1.41
	c-1.354,0.317-2.584,0.647-3.669,0.938c-3.026,0.81-5.211,1.394-5.737,0.532c-0.691-1.131,0.3-1.921,4.201-4.767
	c3.826-2.789,11.959-6.906,12.039-6.947c0.189-0.095,0.267-0.326,0.17-0.515C73.72,6.318,73.489,6.243,73.3,6.338
	c-0.081,0.042-8.271,4.186-12.146,7.013c-3.883,2.833-5.49,4.004-4.402,5.785c0.824,1.35,2.994,0.769,6.589-0.191
	c1.081-0.29,2.307-0.618,3.646-0.934c7.729-1.82,10.598-1.64,10.817-1.26c-0.092,0.403-1.598,1.592-2.702,2.462
	c-2.215,1.751-4.728,3.734-4.931,5.357c-0.026,0.21,0.123,0.401,0.333,0.428C70.52,25,70.536,25,70.552,25
	c0.19,0,0.355-0.142,0.38-0.335c0.165-1.31,2.755-3.356,4.646-4.851c1.026-0.811,1.788-1.424,2.29-1.925
	c0.763-0.258,2.43-1.111,3.96-2.018c-0.293,0.495-0.441,1.008-0.137,1.382c0.148,0.18,0.374,0.276,0.671,0.289
	c0.741,0.026,1.975-0.513,3.169-1.295c-0.056,0.129-0.097,0.251-0.124,0.361c-0.142,0.586,0.124,0.864,0.292,0.979
	c1.222,0.812,3.74-1.067,7.442-4.031c0.148-0.118,0.291-0.233,0.43-0.346c-1.164,1.508-2.781,3.833-2.568,4.86
	c0.046,0.231,0.183,0.413,0.383,0.515c1.248,0.623,3.017-0.976,3.686-1.651c-0.013,0.08-0.011,0.139-0.009,0.184
	c0.011,0.279,0.181,0.491,0.446,0.551c0.726,0.169,1.754-0.261,2.843-0.717c0.952-0.397,2.029-0.852,2.647-0.739
	c0.311,0.057,0.371,0.204,0.209,1.141c-0.119,0.681-0.267,1.527,0.377,2c0.396,0.29,0.993,0.426,2.027,0.426
	c1.629,0,4.341-0.333,9.074-0.913l1.978-0.244c0.209-0.024,0.359-0.217,0.333-0.428C114.971,17.985,114.78,17.836,114.57,17.861z
	 M94.631,16.287c-1.148,1.206-2.326,1.866-2.881,1.624c-0.106-0.379,0.767-2.312,3.422-5.467c0.142-0.167,0.248-0.296,0.363-0.434
	c1.034-0.018,2.099-0.029,3.182-0.033C97.304,13.474,95.392,15.49,94.631,16.287z"/>
</svg>
